<svg width="21" height="20" viewBox="0 0 21 20" fill="none" xmlns="http://www.w3.org/2000/svg">
<g id="vuesax/linear/car">
<g id="car">
<path id="Vector" d="M13.5912 2.3584H7.74118C5.66618 2.3584 5.20785 3.39173 4.94118 4.6584L3.99951 9.16673H17.3328L16.3912 4.6584C16.1245 3.39173 15.6662 2.3584 13.5912 2.3584Z" stroke="#3369FA" stroke-width="1.5" stroke-linecap="round" stroke-linejoin="round"/>
<path id="Vector_2" d="M18.9908 16.5165C19.0825 17.4915 18.2991 18.3332 17.2991 18.3332H15.7325C14.8325 18.3332 14.7075 17.9498 14.5491 17.4748L14.3825 16.9748C14.1491 16.2915 13.9991 15.8332 12.7991 15.8332H8.53246C7.33246 15.8332 7.15746 16.3498 6.94913 16.9748L6.78246 17.4748C6.62413 17.9498 6.49913 18.3332 5.59913 18.3332H4.03246C3.03246 18.3332 2.24913 17.4915 2.3408 16.5165L2.80746 11.4415C2.92413 10.1915 3.1658 9.1665 5.34913 9.1665H15.9825C18.1658 9.1665 18.4075 10.1915 18.5241 11.4415L18.9908 16.5165Z" stroke="#3369FA" stroke-width="1.5" stroke-linecap="round" stroke-linejoin="round"/>
<path id="Vector_3" d="M3.99935 6.6665H3.16602" stroke="#3369FA" stroke-width="1.5" stroke-linecap="round" stroke-linejoin="round"/>
<path id="Vector_4" d="M18.1659 6.6665H17.3325" stroke="#3369FA" stroke-width="1.5" stroke-linecap="round" stroke-linejoin="round"/>
<path id="Vector_5" d="M10.666 2.5V4.16667" stroke="#3369FA" stroke-width="1.5" stroke-linecap="round" stroke-linejoin="round"/>
<path id="Vector_6" d="M9.41602 4.1665H11.916" stroke="#3369FA" stroke-width="1.5" stroke-linecap="round" stroke-linejoin="round"/>
<path id="Vector_7" d="M5.66602 12.5H8.16602" stroke="#3369FA" stroke-width="1.5" stroke-linecap="round" stroke-linejoin="round"/>
<path id="Vector_8" d="M13.166 12.5H15.666" stroke="#3369FA" stroke-width="1.5" stroke-linecap="round" stroke-linejoin="round"/>
</g>
</g>
</svg>
