<svg width="18" height="18" viewBox="0 0 18 18" fill="none" xmlns="http://www.w3.org/2000/svg">
    <path d="M10.74 14.303c0 .457-.3 1.057-.683 1.29L9 16.274c-.983.608-2.348-.075-2.348-1.29v-4.012c0-.533-.3-1.215-.607-1.59l-2.88-3.03c-.383-.383-.683-1.058-.683-1.515v-1.74c0-.908.683-1.59 1.515-1.59h10.005a1.52 1.52 0 0 1 1.515 1.514v1.666c0 .607-.382 1.365-.757 1.74" stroke="#5F6E91" stroke-width="1.5" stroke-miterlimit="10" stroke-linecap="round" stroke-linejoin="round"/>
    <path d="M12.052 12.39a2.4 2.4 0 1 0 0-4.8 2.4 2.4 0 0 0 0 4.8zM14.902 12.84l-.75-.75" stroke="#5F6E91" stroke-width="1.5" stroke-linecap="round" stroke-linejoin="round"/>
</svg>
