<svg width="25" height="24" viewBox="0 0 25 24" fill="none" xmlns="http://www.w3.org/2000/svg">
<g id="vuesax/linear/empty-wallet-tick">
<g id="Group">
<path id="Vector" d="M18.706 13.55C18.286 13.96 18.046 14.55 18.106 15.18C18.196 16.26 19.186 17.05 20.266 17.05H22.166V18.24C22.166 20.31 20.476 22 18.406 22H8.29602C8.60602 21.74 8.87601 21.42 9.08601 21.06C9.45601 20.46 9.66602 19.75 9.66602 19C9.66602 16.79 7.87602 15 5.66602 15C4.72602 15 3.85602 15.33 3.16602 15.88V11.51C3.16602 9.44001 4.85601 7.75 6.92601 7.75H18.406C20.476 7.75 22.166 9.44001 22.166 11.51V12.95H20.146C19.586 12.95 19.076 13.17 18.706 13.55Z" stroke="#3369FA" stroke-width="1.5" stroke-linecap="round" stroke-linejoin="round"/>
<path id="Vector_2" d="M3.16602 12.4098V7.83986C3.16602 6.64986 3.89601 5.58982 5.00601 5.16982L12.946 2.16982C14.186 1.69982 15.516 2.61985 15.516 3.94985V7.74983" stroke="#3369FA" stroke-width="1.5" stroke-linecap="round" stroke-linejoin="round"/>
</g>
<path id="Vector_3" d="M23.2248 13.9702V16.0302C23.2248 16.5802 22.7848 17.0302 22.2248 17.0502H20.2648C19.1848 17.0502 18.1948 16.2602 18.1048 15.1802C18.0448 14.5502 18.2848 13.9602 18.7048 13.5502C19.0748 13.1702 19.5848 12.9502 20.1448 12.9502H22.2248C22.7848 12.9702 23.2248 13.4202 23.2248 13.9702Z" stroke="#3369FA" stroke-width="1.5" stroke-linecap="round" stroke-linejoin="round"/>
<path id="Vector_4" d="M7.66602 12H14.666" stroke="#3369FA" stroke-width="1.5" stroke-linecap="round" stroke-linejoin="round"/>
<g id="Group_2">
<path id="Vector_5" d="M9.66602 19C9.66602 19.75 9.45601 20.46 9.08601 21.06C8.87601 21.42 8.60602 21.74 8.29602 22C7.59602 22.63 6.67602 23 5.66602 23C4.20602 23 2.93602 22.22 2.24602 21.06C1.87602 20.46 1.66602 19.75 1.66602 19C1.66602 17.74 2.24602 16.61 3.16602 15.88C3.85602 15.33 4.72602 15 5.66602 15C7.87602 15 9.66602 16.79 9.66602 19Z" stroke="#3369FA" stroke-width="1.5" stroke-miterlimit="10" stroke-linecap="round" stroke-linejoin="round"/>
<path id="Vector_6" d="M4.10742 18.9995L5.09741 19.9895L7.22742 18.0195" stroke="#3369FA" stroke-width="1.5" stroke-linecap="round" stroke-linejoin="round"/>
</g>
</g>
</svg>
