<svg width="24" height="24" viewBox="0 0 24 24" fill="none" xmlns="http://www.w3.org/2000/svg">
    <path d="M12 22.25C6.346 22.25 1.75 17.654 1.75 12S6.346 1.75 12 1.75 22.25 6.346 22.25 12 17.654 22.25 12 22.25zm0-20c-5.376 0-9.75 4.374-9.75 9.75s4.374 9.75 9.75 9.75 9.75-4.374 9.75-9.75S17.376 2.25 12 2.25z" fill="#323F5D" stroke="#323F5D"/>
    <path d="m7.99 20.75.651-.016-.183-.625a28.99 28.99 0 0 1 0-16.218l.183-.625-.65-.016A.245.245 0 0 1 7.747 3c0-.134.116-.25.25-.25h1c.076 0 .156.04.204.102a.25.25 0 0 1 .034.224l-.002.006a28.448 28.448 0 0 0 0 17.846l.002.006a.249.249 0 0 1-.03.218.289.289 0 0 1-.208.098h-1a.256.256 0 0 1-.25-.25c0-.14.106-.247.242-.25zM14.934 21.242l-.009-.003-.008-.003a.245.245 0 0 1-.158-.306l.004-.011a28.448 28.448 0 0 0 0-17.846.25.25 0 1 1 .471-.164 28.818 28.818 0 0 1 0 18.153l-.002.007-.002.007a.244.244 0 0 1-.296.166z" fill="#323F5D" stroke="#323F5D"/>
    <path d="m3.891 15.541-.625-.184-.016.651a.252.252 0 0 1-.25.243.256.256 0 0 1-.25-.25v-1c0-.076.04-.156.102-.204a.25.25 0 0 1 .224-.034l.006.002a28.448 28.448 0 0 0 17.846 0l.006-.002a.251.251 0 0 1 .23.037.24.24 0 0 1 .096.2v1c0 .135-.116.25-.25.25a.245.245 0 0 1-.25-.241l-.016-.652-.625.184A28.794 28.794 0 0 1 12 16.701c-2.743 0-5.476-.384-8.109-1.16zM20.935 9.241l-.008-.003-.01-.003a28.448 28.448 0 0 0-17.843 0 .25.25 0 0 1-.317-.147.262.262 0 0 1 .16-.324h.001a28.818 28.818 0 0 1 18.153 0 .245.245 0 0 1 .158.306l-.005.015-.004.015c-.022.075-.11.15-.22.15a.181.181 0 0 1-.065-.009z" fill="#323F5D" stroke="#323F5D"/>
</svg>
