<svg width="25" height="24" viewBox="0 0 25 24" fill="none" xmlns="http://www.w3.org/2000/svg">
<g id="Motor" clip-path="url(#clip0_652_16799)">
<path id="Vector" fill-rule="evenodd" clip-rule="evenodd" d="M19.4363 4.70665C20.4194 4.84378 21.4434 5.5465 22.5808 6.93115C22.9261 7.35153 23.2311 7.82185 23.213 8.43704C23.1958 9.02624 22.8845 9.63534 22.3342 10.3607C22.2144 10.5186 22.0126 10.5909 21.8199 10.5449C21.4548 10.4579 21.0739 10.4115 20.6815 10.4115C20.4173 10.4115 20.158 10.4324 19.9052 10.4728L20.1332 11.3238C20.3126 11.2992 20.4956 11.2865 20.6815 11.2865C22.894 11.2865 24.6972 13.0896 24.6972 15.3021C24.6972 17.5146 22.894 19.3177 20.6815 19.3177C18.469 19.3177 16.6659 17.5146 16.6659 15.3021C16.6659 13.6248 17.7022 12.1828 19.1675 11.5833L18.9391 10.731C17.0985 11.433 15.7909 13.2149 15.7909 15.3021C15.7905 15.8071 15.8684 16.3096 16.0219 16.7908C16.0703 16.9428 16.0434 17.1089 15.9492 17.2377C15.8551 17.3665 15.7051 17.4427 15.5455 17.4427H10.5833C10.3702 17.4427 10.1805 17.3076 10.1108 17.1062L9.65958 15.8021H8.63496C8.3877 17.7799 6.6936 19.3177 4.65038 19.3177C2.43788 19.3177 0.634766 17.5146 0.634766 15.3021C0.634766 13.0896 2.43788 11.2865 4.65038 11.2865C6.69361 11.2865 8.3877 12.8242 8.63496 14.8021H9.31356L8.65081 12.8867C8.4997 12.4499 8.33449 12.1749 8.12671 11.9598C7.91348 11.7391 7.6271 11.5519 7.18284 11.3312L3.73233 9.61681C3.04577 9.27571 2.56668 8.93683 2.13896 8.34934C1.73407 7.7932 1.38757 7.02869 0.907097 5.88976C0.836154 5.7216 0.862477 5.52814 0.975772 5.38505C1.08907 5.24195 1.27133 5.17196 1.45128 5.20244L5.47201 5.88348C5.83546 5.93773 6.16789 6.04778 6.44302 6.25904C6.72592 6.47627 6.90542 6.76744 7.01505 7.10658L7.22942 7.76973L10.745 8.77575C11.2029 7.99769 11.6678 7.43166 12.1674 7.06153C12.7505 6.62954 13.36 6.48036 13.9963 6.54255C14.6079 6.60232 15.2205 6.85523 15.8345 7.17263C16.2528 7.38885 16.7034 7.65272 17.1749 7.92877C17.2673 7.98285 17.3604 8.03739 17.4543 8.09214C17.5071 7.95332 17.5486 7.7899 17.5942 7.58033C17.6068 7.52236 17.6198 7.46049 17.6334 7.39534C17.6577 7.27969 17.6841 7.15371 17.7144 7.02085L16.9633 6.37706C16.8538 6.28317 16.7901 6.14653 16.7888 6.00227C16.7874 5.858 16.8484 5.72016 16.9561 5.62417C17.6128 5.03887 18.4276 4.56595 19.4363 4.70665ZM16.715 8.81844C16.6899 8.80377 16.665 8.78918 16.6402 8.77466C16.1828 8.50674 15.77 8.26498 15.3753 8.06096C14.7924 7.75964 14.3171 7.57867 13.899 7.53781C13.5057 7.49936 13.1437 7.58279 12.7627 7.86505C12.4472 8.09876 12.1086 8.47685 11.7417 9.06098L14.2641 9.78279L16.5069 8.90717C16.5824 8.87769 16.6516 8.84812 16.715 8.81844ZM7.62437 14.8021C7.3848 13.3781 6.14034 12.2865 4.65038 12.2865C2.99017 12.2865 1.63477 13.6419 1.63477 15.3021C1.63477 16.9623 2.99017 18.3177 4.65038 18.3177C6.14034 18.3177 7.3848 17.226 7.62437 15.8021H6.73197C6.50603 16.7417 5.65808 17.4427 4.65038 17.4427C3.47063 17.4427 2.50976 16.4818 2.50976 15.3021C2.50976 14.1223 3.47063 13.1615 4.65038 13.1615C5.65808 13.1615 6.50603 13.8625 6.73197 14.8021H7.62437ZM5.6749 14.8021C5.48882 14.4235 5.09881 14.1615 4.65038 14.1615C4.02292 14.1615 3.50976 14.6746 3.50976 15.3021C3.50976 15.9296 4.02292 16.4427 4.65038 16.4427C5.09881 16.4427 5.48882 16.1807 5.6749 15.8021H4.65038C4.37424 15.8021 4.15038 15.5782 4.15038 15.3021C4.15038 15.0259 4.37424 14.8021 4.65038 14.8021H5.6749ZM19.4292 12.5599C18.3906 13.0372 17.6659 14.0882 17.6659 15.3021C17.6659 16.9623 19.0213 18.3177 20.6815 18.3177C22.3417 18.3177 23.6972 16.9623 23.6972 15.3021C23.6972 13.6419 22.3417 12.2865 20.6815 12.2865C20.5849 12.2865 20.4892 12.2911 20.3948 12.3001L20.6258 13.1622C20.6443 13.1617 20.6629 13.1615 20.6815 13.1615C21.8613 13.1615 22.8222 14.1223 22.8222 15.3021C22.8222 16.4818 21.8613 17.4427 20.6815 17.4427C19.5018 17.4427 18.5409 16.4818 18.5409 15.3021C18.5409 14.4919 18.9941 13.785 19.66 13.4216L19.4292 12.5599ZM19.9336 14.4426C19.6933 14.6521 19.5409 14.9601 19.5409 15.3021C19.5409 15.9296 20.0541 16.4427 20.6815 16.4427C21.309 16.4427 21.8222 15.9296 21.8222 15.3021C21.8222 14.749 21.4234 14.2847 20.8992 14.1824L21.1645 15.1727C21.236 15.4394 21.0777 15.7136 20.8109 15.7851C20.5442 15.8565 20.27 15.6982 20.1986 15.4315L19.9336 14.4426ZM18.0785 6.01583L18.5985 6.46155C18.7441 6.58631 18.8055 6.7833 18.7566 6.96867C18.6987 7.18806 18.6573 7.38547 18.6161 7.58179C18.6014 7.65192 18.5868 7.72191 18.5714 7.79272C18.5154 8.05 18.4498 8.31891 18.3376 8.57292C18.0917 9.12923 17.6607 9.53027 16.8706 9.8387C16.8706 9.8387 16.8706 9.8387 16.8706 9.8387L14.4706 10.7757C14.3686 10.8155 14.2564 10.8207 14.1512 10.7906L6.69808 8.65782C6.53793 8.61199 6.41112 8.48941 6.35988 8.3309L6.06354 7.41418C6.06354 7.41418 6.06354 7.41418 6.06354 7.41418C6.00241 7.22509 5.92386 7.1212 5.83399 7.05218C5.73772 6.97826 5.58461 6.91093 5.32051 6.87194L5.31001 6.87039L2.19127 6.34202C2.4853 7.00168 2.71096 7.436 2.94741 7.76076C3.24947 8.17566 3.5789 8.42396 4.17727 8.72125L7.62778 10.4356C7.62777 10.4356 7.62778 10.4356 7.62778 10.4356C8.11099 10.6757 8.51585 10.9234 8.84587 11.265C9.18134 11.6122 9.41141 12.0266 9.59584 12.5597L10.9394 16.4427H14.9017C14.8278 16.0674 14.7906 15.6853 14.7909 15.3017C14.7909 15.3016 14.7909 15.3018 14.7909 15.3017C14.7909 15.1627 14.7958 15.0247 14.8052 14.8881H15.2263C15.5024 14.8881 15.7263 14.6643 15.7263 14.3881C15.7263 14.112 15.5024 13.8881 15.2263 13.8881H14.9617C15.036 13.5866 15.1335 13.2943 15.2522 13.013H15.9975C16.2736 13.013 16.4975 12.7892 16.4975 12.513C16.4975 12.2369 16.2736 12.013 15.9975 12.013H15.794C16.8522 10.4436 18.6463 9.41148 20.6815 9.41148C21.0364 9.41148 21.384 9.44308 21.7218 9.50342C21.6663 9.58307 21.605 9.66726 21.5375 9.75633L21.9358 10.0585L22.0518 9.57216C21.9429 9.5462 21.8329 9.52326 21.7218 9.50342C21.7781 9.42264 21.8284 9.34653 21.8733 9.27473L22.3811 9.48374C22.6364 9.58885 22.9286 9.46705 23.0338 9.21169C23.1389 8.95633 23.0171 8.66412 22.7617 8.55901L22.2119 8.3327C22.1964 8.12115 22.0854 7.90347 21.8081 7.56587C21.8081 7.56587 21.8081 7.56588 21.8081 7.56587C20.7264 6.249 19.9079 5.78212 19.2982 5.69706C18.8739 5.63788 18.479 5.75477 18.0785 6.01583ZM22.2119 8.3327L21.6218 8.08979C21.3664 7.98468 21.0742 8.10649 20.9691 8.36184C20.864 8.6172 20.9858 8.90941 21.2411 9.01452L21.8733 9.27473C22.1266 8.86981 22.2078 8.60209 22.2135 8.40777C22.2142 8.38271 22.2137 8.35775 22.2119 8.3327ZM15.794 12.013H14.2828C14.0066 12.013 13.7828 12.2369 13.7828 12.513C13.7828 12.7892 14.0066 13.013 14.2828 13.013H15.2522C15.4009 12.6609 15.5828 12.3263 15.794 12.013ZM14.9617 13.8881H13.2282C12.9521 13.8881 12.7282 14.112 12.7282 14.3881C12.7282 14.6643 12.9521 14.8881 13.2282 14.8881H14.8052C14.829 14.5459 14.882 14.2118 14.9617 13.8881ZM11.6732 12.513C11.6732 12.2369 11.8971 12.013 12.1732 12.013C12.4494 12.013 12.6736 12.2369 12.6736 12.513C12.6736 12.7892 12.4497 13.013 12.1736 13.013C11.8974 13.013 11.6732 12.7892 11.6732 12.513Z" fill="#3369FA"/>
</g>
<defs>
<clipPath id="clip0_652_16799">
<rect width="24" height="24" fill="white" transform="translate(0.666016)"/>
</clipPath>
</defs>
</svg>
