<svg width="21" height="20" viewBox="0 0 21 20" fill="none" xmlns="http://www.w3.org/2000/svg">
    <path d="M14.666 17.084H6.333c-2.5 0-4.167-1.25-4.167-4.167V7.084c0-2.917 1.667-4.167 4.167-4.167h8.334c2.5 0 4.166 1.25 4.166 4.167v5.833c0 2.917-1.666 4.167-4.166 4.167z" stroke="#8491B0" stroke-width="1.5" stroke-miterlimit="10" stroke-linecap="round" stroke-linejoin="round"/>
    <path d="M10.5 12.5a2.5 2.5 0 1 0 0-5 2.5 2.5 0 0 0 0 5zM2.167 7.5H3c2.5 0 3.333-.834 3.333-3.334v-.833M18.833 7.5H18c-2.5 0-3.334-.834-3.334-3.334v-.833M2.167 12.5H3c2.5 0 3.333.833 3.333 3.333v.834M18.833 12.5H18c-2.5 0-3.334.833-3.334 3.333v.834" stroke="#8491B0" stroke-width="1.5" stroke-miterlimit="10" stroke-linecap="round" stroke-linejoin="round"/>
</svg>
