<svg width="25" height="24" viewBox="0 0 25 24" fill="none" xmlns="http://www.w3.org/2000/svg">
<g id="scooter" clip-path="url(#clip0_652_16802)">
<g id="Vector">
<path d="M20.6705 14.2417C18.8817 14.2417 17.426 15.6971 17.426 17.4862C17.426 19.2753 18.8814 20.7311 20.6705 20.7311C22.4596 20.7311 23.9154 19.2753 23.9154 17.4862C23.9154 15.6971 22.4596 14.2417 20.6705 14.2417ZM20.6705 19.9811C20.0091 19.9803 19.375 19.7172 18.9074 19.2495C18.4397 18.7817 18.1767 18.1476 18.176 17.4862C18.176 16.1107 19.295 14.9917 20.6705 14.9917C22.046 14.9917 23.1654 16.1107 23.1654 17.4862C23.1647 18.1477 22.9016 18.7819 22.4339 19.2496C21.9661 19.7173 21.332 19.9804 20.6705 19.9811Z" fill="#3369FA"/>
<path d="M20.6705 15.5782C20.1646 15.5788 19.6797 15.78 19.322 16.1377C18.9643 16.4954 18.7631 16.9804 18.7625 17.4862C18.7625 18.5388 19.6186 19.395 20.6705 19.395C21.7224 19.395 22.5789 18.5388 22.5789 17.4862C22.5783 16.9803 22.377 16.4953 22.0192 16.1376C21.6615 15.7799 21.1764 15.5787 20.6705 15.5782ZM20.6705 18.6446C20.0319 18.6446 19.5125 18.1248 19.5125 17.4862C19.5125 16.8476 20.0319 16.3282 20.6705 16.3282C21.3091 16.3282 21.8289 16.8476 21.8289 17.4862C21.8289 18.1248 21.3091 18.6446 20.6705 18.6446Z" fill="#3369FA"/>
<path d="M1.41611 16.1775V17.4862C1.41611 17.5857 1.45562 17.6811 1.52595 17.7514C1.59627 17.8217 1.69166 17.8612 1.79111 17.8612H2.85461C3.04061 19.4756 4.41124 20.7337 6.07174 20.7337C7.73524 20.7337 9.10849 19.4756 9.29486 17.8612H16.5421C16.6416 17.8612 16.737 17.8217 16.8073 17.7514C16.8776 17.6811 16.9171 17.5857 16.9171 17.4862C16.9171 15.4166 18.6009 13.7332 20.6709 13.7332C21.65 13.7332 22.577 14.1082 23.2805 14.7888C23.353 14.852 23.447 14.8849 23.5431 14.8808C23.6391 14.8767 23.73 14.8359 23.7968 14.7667C23.8637 14.6976 23.9015 14.6055 23.9024 14.5093C23.9033 14.4132 23.8673 14.3203 23.8017 14.25C23.0559 13.5262 22.0814 13.0847 21.0455 13.0012V12.024C21.0455 11.9421 21.0188 11.8626 20.9693 11.7974C20.9199 11.7322 20.8505 11.6849 20.7717 11.6628C17.8561 10.8465 17.6022 7.53034 17.5996 6.43309H18.7449C18.8443 6.43309 18.9397 6.39358 19.01 6.32325C19.0804 6.25292 19.1199 6.15754 19.1199 6.05809V3.64121C19.1199 3.54175 19.0804 3.44637 19.01 3.37605C18.9397 3.30572 18.8443 3.26621 18.7449 3.26621H16.0077C15.7129 3.26651 15.4303 3.38375 15.2219 3.5922C15.0134 3.80065 14.8962 4.08329 14.8959 4.37809V5.77909L12.8829 6.36859C12.8356 6.38245 12.7915 6.40549 12.7531 6.43639C12.7148 6.46729 12.6828 6.50544 12.6592 6.54867C12.6356 6.5919 12.6207 6.63936 12.6154 6.68835C12.6101 6.73733 12.6146 6.78687 12.6284 6.83415C12.6423 6.88142 12.6653 6.92551 12.6962 6.96388C12.7271 7.00225 12.7653 7.03416 12.8085 7.05779C12.8517 7.08142 12.8992 7.0963 12.9482 7.10158C12.9972 7.10686 13.0467 7.10245 13.094 7.08859L14.903 6.55834C14.9337 7.76396 15.0894 10.8153 15.8712 12.2085L14.6401 15.3123H11.369L12.257 12.5231C12.7677 12.3615 13.1412 11.8886 13.1412 11.325C13.1408 10.9903 13.0077 10.6695 12.7711 10.4329C12.5345 10.1962 12.2136 10.0631 11.879 10.0627H3.63499C3.30034 10.0631 2.97951 10.1962 2.74288 10.4329C2.50625 10.6695 2.37314 10.9903 2.37274 11.325C2.37322 11.613 2.47208 11.8922 2.65294 12.1164C2.8338 12.3406 3.08582 12.4962 3.36724 12.5576C2.19311 13.335 1.41611 14.6662 1.41611 16.1775ZM6.07174 19.9837C4.82561 19.9837 3.79361 19.0605 3.61249 17.8612H4.20349C4.29043 18.2929 4.52392 18.6812 4.86441 18.9603C5.20489 19.2395 5.63143 19.3924 6.07174 19.3931C6.51281 19.3929 6.94027 19.2404 7.28176 18.9612C7.62324 18.682 7.85776 18.2934 7.94561 17.8612H8.53736C8.35549 19.0605 7.32086 19.9837 6.07174 19.9837ZM4.98311 17.8612H7.16561C7.08713 18.089 6.93962 18.2868 6.74358 18.4269C6.54754 18.567 6.31271 18.6426 6.07174 18.6431C5.83146 18.6423 5.59742 18.5666 5.40226 18.4264C5.20711 18.2862 5.06058 18.0887 4.98311 17.8612ZM15.6459 4.37846C15.6459 4.17896 15.8082 4.01659 16.0077 4.01659H18.3699V5.68309H15.6459V4.37846ZM3.63499 11.8376C3.50252 11.8325 3.37717 11.7763 3.28525 11.6808C3.19332 11.5853 3.14197 11.4579 3.14197 11.3253C3.14197 11.1928 3.19332 11.0654 3.28525 10.9699C3.37717 10.8743 3.50252 10.8182 3.63499 10.8131H11.879C12.1614 10.8131 12.3912 11.043 12.3912 11.3253C12.3912 11.6077 12.1614 11.8376 11.879 11.8376H3.63499ZM5.75561 12.5876H6.01999C7.72886 12.5876 9.11899 13.9777 9.11899 15.6866V15.9532C9.11899 16.0527 9.1585 16.148 9.22882 16.2184C9.29915 16.2887 9.39453 16.3282 9.49399 16.3282C9.59344 16.3282 9.68883 16.2887 9.75915 16.2184C9.82948 16.148 9.86899 16.0527 9.86899 15.9532V15.687C9.86899 14.415 9.24649 13.2888 8.29324 12.5876H11.4496L10.4986 15.5741C10.4807 15.6303 10.4762 15.6899 10.4857 15.7481C10.4951 15.8063 10.5182 15.8615 10.553 15.9091C10.5878 15.9567 10.6333 15.9954 10.6859 16.0221C10.7385 16.0488 10.7966 16.0627 10.8556 16.0627H14.8947C14.9699 16.0628 15.0433 16.0402 15.1055 15.998C15.1677 15.9558 15.2158 15.8959 15.2435 15.8261L16.6374 12.3112C16.66 12.2544 16.6684 12.193 16.6619 12.1322C16.6553 12.0714 16.634 12.0131 16.5999 11.9625C15.8844 10.9042 15.68 7.89634 15.65 6.43309H16.8545C16.8714 7.64059 17.1871 11.2353 20.2955 12.3V13.002C18.1115 13.1835 16.3677 14.9276 16.1862 17.1112H2.16611V16.1775C2.16611 14.1982 3.77636 12.5876 5.75561 12.5876Z" fill="#3369FA"/>
<path d="M3.58099 16.3282H7.75699C7.85644 16.3282 7.95183 16.2887 8.02215 16.2184C8.09248 16.1481 8.13199 16.0527 8.13199 15.9532C8.13199 15.8538 8.09248 15.7584 8.02215 15.688C7.95183 15.6177 7.85644 15.5782 7.75699 15.5782H3.58099C3.48153 15.5782 3.38615 15.6177 3.31582 15.688C3.2455 15.7584 3.20599 15.8538 3.20599 15.9532C3.20599 16.0527 3.2455 16.1481 3.31582 16.2184C3.38615 16.2887 3.48153 16.3282 3.58099 16.3282ZM4.14911 15.09H7.18924C7.28869 15.09 7.38408 15.0505 7.4544 14.9801C7.52473 14.9098 7.56424 14.8144 7.56424 14.715C7.56424 14.6155 7.52473 14.5201 7.4544 14.4498C7.38408 14.3795 7.28869 14.34 7.18924 14.34H4.14911C4.04966 14.34 3.95427 14.3795 3.88395 14.4498C3.81362 14.5201 3.77411 14.6155 3.77411 14.715C3.77411 14.8144 3.81362 14.9098 3.88395 14.9801C3.95427 15.0505 4.04966 15.09 4.14911 15.09Z" fill="#3369FA"/>
<path fill-rule="evenodd" clip-rule="evenodd" d="M16.0077 3.11621L18.7449 3.11621C18.8841 3.11621 19.0176 3.17152 19.1161 3.26998C19.2146 3.36844 19.2699 3.50197 19.2699 3.64121V6.05809C19.2699 6.19732 19.2146 6.33086 19.1161 6.42932C19.0176 6.52777 18.8841 6.58309 18.7449 6.58309H17.7515C17.7644 7.15804 17.8503 8.14396 18.2325 9.09747C18.6491 10.1366 19.4122 11.1264 20.8122 11.5184C20.9225 11.5493 21.0197 11.6155 21.0889 11.7068C21.1581 11.798 21.1955 11.9094 21.1955 12.024V12.8649C22.2145 12.9778 23.1686 13.4265 23.9062 14.1423L23.9117 14.1476C24.0034 14.2461 24.0537 14.3762 24.0524 14.5108C24.0511 14.6453 23.9982 14.7743 23.9046 14.871C23.8111 14.9678 23.6839 15.0249 23.5495 15.0307C23.415 15.0364 23.2835 14.9903 23.182 14.902L23.176 14.8968C22.5005 14.2432 21.6111 13.8832 20.6709 13.8832C18.6837 13.8832 17.0671 15.4995 17.0671 17.4862C17.0671 17.6254 17.0118 17.759 16.9133 17.8574C16.8149 17.9559 16.6814 18.0112 16.5421 18.0112H9.42588C9.17294 19.6359 7.76664 20.8837 6.07174 20.8837C4.37955 20.8837 2.976 19.6357 2.72356 18.0112H1.79111C1.65188 18.0112 1.51834 17.9559 1.41988 17.8574C1.32143 17.759 1.26611 17.6255 1.26611 17.4862V16.1775C1.26611 14.7204 1.96419 13.4255 3.04137 12.6052C2.84621 12.5147 2.67301 12.3801 2.5362 12.2106C2.33387 11.9598 2.22328 11.6474 2.22274 11.3252C2.22318 10.9508 2.3721 10.5915 2.63682 10.3268C2.90153 10.0621 3.26044 9.91316 3.63481 9.91271H11.879C12.2534 9.91316 12.6124 10.0621 12.8772 10.3268C13.1419 10.5915 13.2908 10.9504 13.2912 11.3248C13.2912 11.929 12.9086 12.4386 12.3772 12.6401L11.5742 15.1623H14.5382L15.7059 12.2185C15.3205 11.4926 15.0932 10.3897 14.9567 9.3323C14.8294 8.34675 14.7788 7.3814 14.7587 6.75695L13.1362 7.23253C13.07 7.25193 13.0007 7.25811 12.9321 7.25071C12.8635 7.24332 12.7971 7.22249 12.7366 7.18941C12.6761 7.15634 12.6226 7.11167 12.5794 7.05796C12.5361 7.00424 12.5039 6.94253 12.4845 6.87636C12.4651 6.81018 12.4589 6.74082 12.4663 6.67226C12.4737 6.60369 12.4945 6.53725 12.5276 6.47674C12.5607 6.41622 12.6053 6.36281 12.6591 6.31956C12.7128 6.2763 12.7745 6.24405 12.8407 6.22465L14.7459 5.66671V4.37809C14.7462 4.04356 14.8792 3.72268 15.1158 3.48613C15.3523 3.24959 15.6732 3.11655 16.0077 3.11621ZM16.0079 3.41621C15.7528 3.41647 15.5083 3.51791 15.3279 3.69827C15.1476 3.87863 15.0461 4.12317 15.0459 4.37824V5.89146L12.9251 6.51253C12.8967 6.52085 12.8702 6.53467 12.8472 6.55322C12.8242 6.57176 12.805 6.59466 12.7908 6.62061C12.7767 6.64655 12.7677 6.67504 12.7646 6.70444C12.7614 6.73383 12.764 6.76357 12.7724 6.79194C12.7807 6.82032 12.7945 6.84677 12.8131 6.8698C12.8316 6.89283 12.8545 6.91198 12.8804 6.92616C12.9064 6.94034 12.9349 6.94927 12.9643 6.95245C12.9937 6.95562 13.0234 6.95297 13.0518 6.94465L15.048 6.35953L15.0529 6.55451C15.0683 7.15482 15.1146 8.21337 15.2542 9.29387C15.3946 10.3807 15.6266 11.466 16.002 12.135L16.037 12.1974L14.742 15.4623H11.1638L12.1376 12.4035L12.2117 12.3801C12.6632 12.2372 12.9912 11.8201 12.9912 11.3251C12.9909 11.0302 12.8736 10.7475 12.665 10.5389C12.4565 10.3304 12.1737 10.2131 11.8788 10.2127H3.63517C3.34024 10.2131 3.05749 10.3304 2.84895 10.5389C2.64045 10.7474 2.52314 11.0301 2.52274 11.3249C2.52321 11.5787 2.61033 11.8247 2.76968 12.0222C2.92908 12.2198 3.15118 12.3569 3.3992 12.411L3.74606 12.4867L3.45005 12.6827C2.31585 13.4336 1.56611 14.7189 1.56611 16.1775V17.4862C1.56611 17.5459 1.58982 17.6031 1.63201 17.6453C1.67421 17.6875 1.73144 17.7112 1.79111 17.7112H2.98832L3.00363 17.844C3.18106 19.384 4.48877 20.5837 6.07174 20.5837C7.65794 20.5837 8.96809 19.3838 9.14585 17.844L9.16118 17.7112H16.5421C16.6018 17.7112 16.659 17.6875 16.7012 17.6453C16.7434 17.6031 16.7671 17.5459 16.7671 17.4862C16.7671 15.3337 18.518 13.5832 20.6709 13.5832C21.6874 13.5832 22.6505 13.9722 23.3816 14.6779C23.4248 14.7144 23.4801 14.7334 23.5367 14.7309C23.5943 14.7285 23.6489 14.704 23.689 14.6625C23.7292 14.621 23.7518 14.5656 23.7524 14.5079C23.7529 14.4513 23.7321 14.3966 23.6942 14.3546C22.9738 13.6569 22.0332 13.2313 21.0334 13.1507L20.8955 13.1396V12.0239C20.8955 11.9749 20.8794 11.9271 20.8498 11.888C20.8201 11.8489 20.7785 11.8205 20.7312 11.8073C19.2156 11.3829 18.394 10.3064 17.9541 9.20911C17.5156 8.11545 17.4509 6.99034 17.4496 6.43345L17.4493 6.28309H18.7449C18.8045 6.28309 18.8618 6.25938 18.904 6.21718C18.9462 6.17499 18.9699 6.11776 18.9699 6.05809V3.64121C18.9699 3.58154 18.9462 3.52431 18.904 3.48211C18.8618 3.43992 18.8045 3.41621 18.7449 3.41621L16.0079 3.41621ZM16.0077 4.16659C15.8911 4.16659 15.7959 4.2618 15.7959 4.37846V5.53309H18.2199V4.16659H16.0077ZM15.4959 4.37846C15.4959 4.09612 15.7254 3.86659 16.0077 3.86659H18.5199V5.83309H15.4959V4.37846ZM15.4969 6.28309H17.0024L17.0045 6.43099C17.0128 7.02633 17.0951 8.20622 17.5551 9.36475C18.014 10.5206 18.8437 11.6442 20.3441 12.1581L20.4455 12.1928V13.14L20.3079 13.1514C18.197 13.3269 16.5112 15.013 16.3357 17.1236L16.3243 17.2612H2.01611V16.1775C2.01611 14.1154 3.6935 12.4376 5.75561 12.4376H6.01999C7.81171 12.4376 9.26899 13.8949 9.26899 15.6866V15.9532C9.26899 16.0129 9.29269 16.0701 9.33489 16.1123C9.37708 16.1545 9.43431 16.1782 9.49399 16.1782C9.55366 16.1782 9.61089 16.1545 9.65309 16.1123C9.69528 16.0701 9.71899 16.0129 9.71899 15.9532V15.687C9.71899 14.4652 9.12126 13.3829 8.20435 12.7084L7.8362 12.4376H11.6548L10.6415 15.6196C10.6308 15.6533 10.6281 15.6892 10.6337 15.7241C10.6394 15.759 10.6532 15.792 10.6741 15.8206C10.695 15.8492 10.7223 15.8724 10.7538 15.8884C10.7853 15.9044 10.8202 15.9127 10.8556 15.9127H14.8947C14.9398 15.9127 14.984 15.8992 15.0213 15.8739C15.0586 15.8486 15.0874 15.8126 15.1041 15.7707L16.4979 12.2559C16.5115 12.2218 16.5166 12.1847 16.5127 12.1482C16.5088 12.1118 16.4961 12.0769 16.4756 12.0465M15.8036 6.58309C15.8232 7.30828 15.8829 8.34149 16.0165 9.32955C16.0882 9.85952 16.1807 10.3738 16.2988 10.8194C16.4176 11.2676 16.5594 11.6348 16.7241 11.8784C16.772 11.9494 16.8018 12.0311 16.811 12.1161C16.8201 12.2011 16.8084 12.2871 16.7768 12.3665M16.7768 12.3665L15.3829 15.8814C15.3441 15.9792 15.2768 16.0631 15.1897 16.1222C15.1027 16.1812 14.9999 16.2128 14.8947 16.2127H10.8557C10.7731 16.2127 10.6916 16.1933 10.618 16.1559C10.5444 16.1185 10.4806 16.0643 10.4319 15.9976C10.3831 15.9309 10.3509 15.8536 10.3376 15.7721C10.3244 15.6906 10.3306 15.6071 10.3557 15.5284L11.2444 12.7376H11.4496V12.5876L11.3067 12.5421L11.2444 12.7376H8.71232C8.60718 12.6417 8.49696 12.5512 8.38212 12.4668L8.29324 12.5876V12.7376H8.71232C9.51322 13.4683 10.019 14.5182 10.019 15.687V15.9532C10.019 16.0925 9.96367 16.226 9.86522 16.3244C9.76676 16.4229 9.63323 16.4782 9.49399 16.4782C9.35475 16.4782 9.22121 16.4229 9.12276 16.3244C9.0243 16.226 8.96899 16.0925 8.96899 15.9532V15.6866C8.96899 14.0606 7.64602 12.7376 6.01999 12.7376H5.75561C3.85923 12.7376 2.31611 14.281 2.31611 16.1775V16.9612H2.16611V17.1112H2.31611V16.9612H16.0502C16.0451 17.0069 16.0406 17.0527 16.0368 17.0988L16.1862 17.1112V16.9612H16.0502C16.2929 14.8149 17.9988 13.1086 20.1455 12.866V13.002H20.2955L20.2831 12.8525C20.237 12.8563 20.1912 12.8608 20.1455 12.866V12.4059C20.179 12.4182 20.2128 12.4302 20.2469 12.4419L20.2955 12.3H20.1455V12.4059C18.6016 11.8399 17.7463 10.6593 17.2763 9.47546C16.833 8.35918 16.7279 7.23063 16.7078 6.58309H16.8545V6.43309L16.7045 6.43518C16.7051 6.48114 16.7062 6.53053 16.7078 6.58309H15.8036M3.63499 10.6631H11.879C12.2442 10.6631 12.5412 10.9601 12.5412 11.3253C12.5412 11.6906 12.2442 11.9876 11.879 11.9876H3.62925C3.45802 11.981 3.296 11.9083 3.17717 11.7848C3.05835 11.6614 2.99197 11.4967 2.99197 11.3253C2.99197 11.154 3.05835 10.9893 3.17717 10.8658C3.296 10.7424 3.45803 10.6697 3.62925 10.6632L3.63499 10.6631ZM3.63811 10.9631C3.54537 10.9673 3.45774 11.0069 3.39332 11.0739C3.32829 11.1414 3.29197 11.2316 3.29197 11.3253C3.29197 11.4191 3.32829 11.5092 3.39332 11.5768C3.45774 11.6437 3.54537 11.6834 3.63811 11.6876H11.879C12.0785 11.6876 12.2412 11.5249 12.2412 11.3253C12.2412 11.1258 12.0785 10.9631 11.879 10.9631H3.63811ZM17.276 17.4862C17.276 15.6142 18.7989 14.0917 20.6705 14.0917C22.5424 14.0917 24.0654 15.6142 24.0654 17.4862C24.0654 19.3582 22.5425 20.8811 20.6705 20.8811C18.7985 20.8811 17.276 19.3582 17.276 17.4862ZM20.6705 14.3917C18.9646 14.3917 17.576 15.7799 17.576 17.4862C17.576 19.1925 18.9642 20.5811 20.6705 20.5811C22.3768 20.5811 23.7654 19.1925 23.7654 17.4862C23.7654 15.78 22.3768 14.3917 20.6705 14.3917ZM3.77788 14.3437C3.87634 14.2453 4.00988 14.19 4.14911 14.19H7.18924C7.32848 14.19 7.46201 14.2453 7.56047 14.3437C7.65893 14.4422 7.71424 14.5757 7.71424 14.715C7.71424 14.8542 7.65893 14.9877 7.56047 15.0862C7.46201 15.1846 7.32848 15.24 7.18924 15.24H4.14911C4.00987 15.24 3.87634 15.1846 3.77788 15.0862C3.67943 14.9877 3.62411 14.8542 3.62411 14.715C3.62411 14.5757 3.67943 14.4422 3.77788 14.3437ZM4.14911 14.49C4.08944 14.49 4.03221 14.5137 3.99001 14.5559C3.94782 14.5981 3.92411 14.6553 3.92411 14.715C3.92411 14.7746 3.94782 14.8319 3.99001 14.8741C4.03221 14.9163 4.08944 14.94 4.14911 14.94H7.18924C7.24891 14.94 7.30614 14.9163 7.34834 14.8741C7.39053 14.8319 7.41424 14.7746 7.41424 14.715C7.41424 14.6553 7.39053 14.5981 7.34834 14.5559C7.30614 14.5137 7.24891 14.49 7.18924 14.49H4.14911ZM20.6705 15.1417C19.3779 15.1417 18.3261 16.1935 18.326 17.4861C18.3266 18.1077 18.5739 18.7038 19.0134 19.1434C19.453 19.583 20.0489 19.8303 20.6705 19.8311C21.2922 19.8304 21.8882 19.5831 22.3278 19.1435C22.7674 18.7039 23.0147 18.1078 23.0154 17.4861C23.0153 16.1935 21.9631 15.1417 20.6705 15.1417ZM18.026 17.4862C18.026 16.0279 19.2121 14.8417 20.6705 14.8417C22.1288 14.8417 23.3154 16.0278 23.3154 17.4862C23.3146 18.1874 23.0358 18.8598 22.5399 19.3557C22.0441 19.8515 21.3718 20.1304 20.6706 20.1311C19.9695 20.1302 19.297 19.8513 18.8013 19.3555C18.3055 18.8597 18.0267 18.1873 18.026 17.4862ZM20.6706 15.4282C21.2163 15.4287 21.7394 15.6457 22.1253 16.0315C22.5112 16.4173 22.7282 16.9404 22.7289 17.486C22.7289 18.6215 21.8052 19.545 20.6705 19.545C19.5357 19.545 18.6125 18.6216 18.6125 17.4862C18.6131 16.9406 18.8301 16.4174 19.2159 16.0316C19.6017 15.6459 20.1251 15.4289 20.6706 15.4282ZM3.20976 15.582C3.30821 15.4835 3.44175 15.4282 3.58099 15.4282H7.75699C7.89623 15.4282 8.02976 15.4835 8.12822 15.582C8.22668 15.6804 8.28199 15.814 8.28199 15.9532C8.28199 16.0925 8.22668 16.226 8.12822 16.3244C8.02976 16.4229 7.89623 16.4782 7.75699 16.4782H3.58099C3.44175 16.4782 3.30821 16.4229 3.20976 16.3244C3.1113 16.226 3.05599 16.0924 3.05599 15.9532C3.05599 15.814 3.1113 15.6804 3.20976 15.582ZM3.58099 15.7282C3.52131 15.7282 3.46408 15.7519 3.42189 15.7941C3.37969 15.8363 3.35599 15.8935 3.35599 15.9532C3.35599 16.0129 3.37969 16.0701 3.42189 16.1123C3.46408 16.1545 3.52131 16.1782 3.58099 16.1782H7.75699C7.81666 16.1782 7.87389 16.1545 7.91609 16.1123C7.95828 16.0701 7.98199 16.0129 7.98199 15.9532C7.98199 15.8935 7.95828 15.8363 7.91609 15.7941C7.87389 15.7519 7.81666 15.7282 7.75699 15.7282H3.58099ZM20.6705 15.7282C20.2044 15.7288 19.7576 15.9142 19.4281 16.2438C19.0984 16.5734 18.913 17.0203 18.9125 17.4864C18.9126 18.4561 19.7016 19.245 20.6705 19.245C21.6395 19.245 22.4288 18.4561 22.4289 17.4864C22.4283 17.0202 22.2429 16.5733 21.9132 16.2437C21.5835 15.9141 21.1366 15.7287 20.6705 15.7282ZM20.6705 16.4782C20.1147 16.4782 19.6625 16.9304 19.6625 17.4862C19.6625 18.0421 20.1148 18.4946 20.6705 18.4946C21.2263 18.4946 21.6789 18.042 21.6789 17.4862C21.6789 16.9305 21.2263 16.4782 20.6705 16.4782ZM19.3625 17.4862C19.3625 16.7647 19.949 16.1782 20.6705 16.1782C21.3919 16.1782 21.9789 16.7647 21.9789 17.4862C21.9789 18.2077 21.392 18.7946 20.6705 18.7946C19.949 18.7946 19.3625 18.2076 19.3625 17.4862ZM3.43813 17.7112H4.32629L4.35054 17.8316C4.43064 18.2293 4.64579 18.5871 4.95951 18.8444C5.27323 19.1016 5.66622 19.2425 6.07191 19.2431C6.47831 19.2429 6.87217 19.1023 7.18682 18.8451C7.50153 18.5878 7.71766 18.2297 7.79862 17.8313L7.82303 17.7112H8.71183L8.68567 17.8837C8.49291 19.1547 7.39658 20.1337 6.07174 20.1337C4.74961 20.1337 3.6561 19.1544 3.46417 17.8836L3.43813 17.7112ZM3.79348 18.0112C4.03181 19.0537 4.962 19.8337 6.07174 19.8337C7.18456 19.8337 8.11706 19.0535 8.35624 18.0112H8.06443C7.95315 18.429 7.71303 18.8024 7.37669 19.0773C7.00843 19.3784 6.54745 19.5429 6.07179 19.5431C5.59688 19.5424 5.13654 19.3775 4.7693 19.0763C4.434 18.8014 4.1949 18.4284 4.08447 18.0112H3.79348ZM4.77357 17.7112H7.37593L7.30744 17.9101C7.2188 18.1674 7.05221 18.3907 6.83081 18.5489C6.6094 18.7072 6.34419 18.7925 6.07205 18.7931C5.80054 18.7922 5.53529 18.7066 5.31476 18.5482C5.09423 18.3899 4.92865 18.1666 4.84112 17.9096L4.77357 17.7112ZM5.21789 18.0112C5.28754 18.1256 5.37978 18.2256 5.48977 18.3046C5.65942 18.4264 5.86286 18.4923 6.07173 18.4931C6.28142 18.4926 6.48576 18.4268 6.65635 18.3049C6.7669 18.2258 6.85972 18.1258 6.92997 18.0112H5.21789Z" fill="#3369FA"/>
</g>
</g>
<defs>
<clipPath id="clip0_652_16802">
<rect width="24" height="24" fill="white" transform="translate(0.666016)"/>
</clipPath>
</defs>
</svg>
